<svg width="1400" height="1306" viewBox="0 0 1400 1306" fill="none" xmlns="http://www.w3.org/2000/svg">
<path d="M1393.24 1061.29L1153.15 339.908H1152.57C1090.82 143.351 906.995 0.688477 689.987 0.688477C472.403 0.688477 288.581 143.639 227.115 340.772H226.826L5.4903 1066.19C-23.9442 1188.1 68.688 1305.69 194.506 1305.69H437.485C348.605 1215.19 291.756 1080.02 291.756 928.426L312.244 798.733L182.386 775.1L312.533 751.467C582.927 710.83 801.088 629.267 974.233 534.159C934.121 673.651 861.977 752.62 861.977 752.62C983.756 752.62 1068.02 656.359 1114.77 582.29L1128.04 621.198L1108.13 644.254C1094.57 659.817 1087.93 680.28 1089.66 700.743L1107.84 928.426C1107.84 1079.73 1051.28 1215.19 962.113 1305.69H1205.09C1333.22 1305.4 1426.43 1184.64 1393.24 1061.29Z" fill="#FF7872"/>
</svg>
