<svg width="200" height="57" viewBox="0 0 200 57" fill="none" xmlns="http://www.w3.org/2000/svg">
  <path fill-rule="evenodd" clip-rule="evenodd" d="M68 39.543L76.118 16h4.833l8.027 23.543h-4.88l-1.55-5.029H74.43l-1.55 5.029H68zm7.616-8.823h5.791l-2.736-9.28h-.182l-2.873 9.28zm13.59 3.2h4.378c.182 1.783 1.276 2.651 3.237 2.651.821 0 1.551-.137 2.144-.457.593-.32.866-.823.866-1.463 0-.64-.228-1.097-.73-1.371-.501-.274-1.14-.503-1.915-.686l-3.055-.64c-2.964-.64-4.47-2.331-4.47-5.074 0-.777.138-1.463.457-2.149.319-.64.775-1.234 1.368-1.691.593-.503 1.322-.869 2.189-1.143.866-.274 1.824-.411 2.919-.411 2.006 0 3.693.503 4.97 1.463 1.277.96 2.007 2.422 2.098 4.388h-4.378c-.046-.823-.32-1.463-.82-1.874-.502-.412-1.14-.594-1.916-.594-.73 0-1.368.182-1.824.502-.456.32-.73.823-.73 1.418 0 .594.183 1.051.502 1.325.365.275.82.503 1.368.64l3.557.732c.638.137 1.277.32 1.87.594.593.274 1.094.594 1.505 1.006.41.411.775.868 1.003 1.417.228.548.365 1.234.365 1.966 0 .777-.183 1.462-.502 2.148-.319.686-.821 1.234-1.414 1.737-.638.503-1.413.869-2.326 1.189-.912.274-1.96.457-3.146.457-2.371 0-4.196-.503-5.518-1.554-1.277-1.097-1.961-2.56-2.052-4.526zM106.398 16v23.543h4.378V16h-4.378zm10.443 5.897l-5.974 7.954 6.841 9.692h4.834l-6.932-9.692 6.385-7.954h-5.154zm6.248 17.646L131.161 16h4.834l8.072 23.543h-4.88l-1.55-5.029h-8.118l-1.55 5.029h-4.88zm7.616-8.823h5.792l-2.737-9.28h-.136l-2.919 9.28zm14.867-8.823v17.646h4.378V29.349c0-1.326.319-2.378 1.003-3.155.684-.777 1.642-1.188 2.827-1.188 1.049 0 1.779.274 2.235.868.456.595.684 1.372.684 2.423v11.246h4.378V27.977c0-2.011-.456-3.611-1.414-4.754-.957-1.143-2.417-1.737-4.423-1.737-1.277 0-2.326.274-3.192.777-.867.503-1.551 1.234-2.098 2.194v-2.56h-4.378zm18.606 17.646V21.897h4.378v2.56c.547-.96 1.231-1.691 2.098-2.194.866-.503 1.915-.777 3.192-.777 2.007 0 3.466.594 4.424 1.737.957 1.143 1.413 2.743 1.413 4.754v11.566h-4.378V28.297c0-1.051-.228-1.828-.684-2.423-.456-.594-1.185-.868-2.234-.868-1.186 0-2.144.411-2.828 1.188-.684.777-1.003 1.829-1.003 3.155v10.194h-4.378zm19.108-8.732c-1.003 1.052-1.505 2.286-1.505 3.703 0 .823.137 1.555.411 2.195.273.64.684 1.188 1.185 1.691.502.503 1.095.869 1.779 1.143a5.89 5.89 0 002.234.411c1.368 0 2.463-.32 3.329-.868.867-.549 1.551-1.326 2.053-2.286h.136l.046 2.743h6.932V36.16h-3.01v-8.64c0-2.011-.639-3.52-1.87-4.526-1.231-1.051-2.918-1.554-5.062-1.554-1.049 0-2.052.091-2.964.366-.912.228-1.733.594-2.371 1.097a5.574 5.574 0 00-1.597 1.828c-.41.732-.638 1.6-.638 2.56h4.378c0-.777.274-1.417.821-1.828.593-.412 1.322-.64 2.189-.64.866 0 1.55.183 2.052.594.502.412.73 1.097.73 2.012v1.142l-4.926.412c-1.869.183-3.329.777-4.332 1.828zm3.74 5.395c-.502-.275-.73-.64-.73-1.189V33.51c.045-.686.365-1.098 1.003-1.143l5.245-.457v.685c0 1.097-.32 2.057-.958 2.835-.639.777-1.551 1.188-2.645 1.188-.775 0-1.414-.137-1.915-.411z" fill="#310A53"/>
  <path d="M59.715 45.522L49.425 14.56H49.4C46.753 6.123 38.874 0 29.573 0 20.247 0 12.37 6.136 9.734 14.597h-.012L.235 45.733c-1.262 5.232 2.709 10.28 8.101 10.28h10.415c-3.81-3.885-6.246-9.687-6.246-16.193l.878-5.567-5.566-1.014 5.578-1.015c11.59-1.744 20.94-5.245 28.361-9.327-1.719 5.987-4.811 9.377-4.811 9.377 5.22 0 8.831-4.132 10.835-7.31l.569 1.67-.854.989a3.279 3.279 0 00-.791 2.424l.779 9.773c0 6.494-2.424 12.308-6.246 16.192H51.65c5.492-.012 9.487-5.195 8.064-10.49z" fill="#310A53"/>
</svg>
