<svg width="86" height="80" viewBox="0 0 86 80" fill="none" xmlns="http://www.w3.org/2000/svg">
<path d="M85.0321 62.8306L70.7027 19.5114H70.6409C68.6027 14.1915 65.0512 9.44552 60.4806 6.01784C55.2152 2.07833 48.9769 0 42.4299 0C35.8674 0 29.6137 2.07833 24.3791 6.01784C19.7931 9.46103 16.2262 14.2071 14.2034 19.5425H14.1108L0.924003 63.0322L0.87768 63.1718C-0.0951143 67.2664 0.831356 71.5006 3.42547 74.8042C6.01959 78.1078 9.91077 80 14.0953 80H71.9071C76.1688 80 80.0909 78.0613 82.685 74.6646C85.2791 71.2679 86.1284 66.9562 85.0321 62.8306ZM78.763 71.6402C77.1108 73.796 74.6247 75.0368 71.9071 75.0368H60.1563C64.0012 69.9961 66.3328 63.2493 66.3328 55.8356L65.2983 42.7453C65.2056 41.5665 65.5916 40.3878 66.3637 39.4882L67.5063 38.1543L66.7497 35.9209C64.0784 40.1861 59.2608 45.7231 52.2968 45.7231C52.2968 45.7231 56.4196 41.1788 58.7049 33.1601C48.7916 38.6351 36.3306 43.3191 20.874 45.6611L13.4314 47.026L20.8586 48.3909L19.685 55.8511C19.685 63.2648 22.0321 70.0116 25.8615 75.0523H14.0953C11.4394 75.0523 8.96885 73.8426 7.31665 71.7487C5.67988 69.6704 5.09312 67.0027 5.67988 64.4281L17.7703 24.5522H17.7858L18.3262 22.7995C19.8858 17.7433 23.0821 13.2144 27.3284 10.0349C31.7137 6.7468 36.9328 5.00969 42.4299 5.00969C47.9115 5.00969 53.1306 6.7468 57.5159 10.0349C61.7468 13.2144 64.9586 17.7433 66.5181 22.784L67.0586 24.5366H67.1358L80.2762 64.2264C80.9402 66.7856 80.3843 69.4998 78.763 71.6402Z" fill="white"/>
</svg>
