<?xml version="1.0" standalone="no"?>
<!DOCTYPE svg PUBLIC "-//W3C//DTD SVG 20010904//EN"
 "http://www.w3.org/TR/2001/REC-SVG-20010904/DTD/svg10.dtd">
<svg version="1.0" xmlns="http://www.w3.org/2000/svg"
 width="513.000000pt" height="513.000000pt" viewBox="0 0 513.000000 513.000000"
 preserveAspectRatio="xMidYMid meet">
<metadata>
Created by potrace 1.11, written by Peter Selinger 2001-2013
</metadata>
<g transform="translate(0.000000,513.000000) scale(0.100000,-0.100000)"
fill="#000000" stroke="none">
<path d="M2448 4615 c-2 -2 -32 -5 -68 -9 -61 -5 -79 -8 -155 -22 -41 -7 -203
-53 -239 -67 -139 -55 -334 -169 -430 -252 -126 -109 -227 -224 -311 -355 -97
-152 -143 -263 -238 -580 -14 -47 -47 -152 -72 -235 -26 -82 -53 -174 -61
-204 -8 -29 -17 -58 -21 -63 -3 -6 -9 -24 -13 -42 -4 -17 -65 -218 -135 -446
-70 -228 -133 -435 -140 -460 -7 -25 -55 -180 -106 -345 l-93 -300 0 -115 c0
-99 4 -125 26 -188 69 -191 197 -319 388 -386 l85 -29 432 -2 c449 -1 444 -1
402 35 -3 3 -33 40 -67 83 -259 327 -399 820 -338 1182 10 55 19 111 21 125 2
14 9 56 15 94 6 38 9 70 8 71 -2 3 -301 59 -365 69 -24 4 -26 16 -2 17 13 0
31 2 39 4 8 1 31 5 50 9 19 3 60 10 90 16 30 6 70 13 89 16 18 3 43 8 55 10
11 2 48 9 81 14 749 122 1441 347 1977 641 37 21 68 36 68 35 0 -2 -11 -36
-24 -77 -67 -209 -172 -410 -298 -571 l-29 -38 62 5 c138 11 273 65 404 163
82 61 205 191 272 286 l56 78 12 -29 c31 -73 29 -89 -13 -140 -77 -92 -84
-126 -69 -313 4 -52 9 -111 12 -130 2 -19 6 -78 10 -132 4 -53 8 -109 10 -125
3 -28 18 -249 18 -268 -1 -26 -14 -173 -17 -195 -3 -14 -7 -43 -11 -65 -43
-295 -211 -643 -412 -853 -7 -7 -13 -14 -13 -15 0 -2 192 -2 428 -1 469 2 484
4 607 65 120 61 209 151 270 274 49 98 68 190 62 298 -4 81 -19 133 -217 730
-116 353 -216 651 -221 662 -11 27 -179 533 -189 570 -26 100 -190 555 -227
634 -117 241 -323 478 -541 617 -205 132 -426 212 -662 239 -56 7 -248 14
-252 10z"/>
</g>
</svg>
