<?xml version="1.0" standalone="no"?>
<!DOCTYPE svg PUBLIC "-//W3C//DTD SVG 20010904//EN"
 "http://www.w3.org/TR/2001/REC-SVG-20010904/DTD/svg10.dtd">
<svg version="1.0" xmlns="http://www.w3.org/2000/svg"
 width="1024.000000pt" height="1024.000000pt" viewBox="0 0 1024.000000 1024.000000"
 preserveAspectRatio="xMidYMid meet">
<metadata>
Created by potrace 1.11, written by Peter Selinger 2001-2013
</metadata>
<g transform="translate(0.000000,1024.000000) scale(0.100000,-0.100000)"
fill="#000000" stroke="none">
<path d="M4800 9209 c-602 -53 -1180 -284 -1650 -659 -135 -108 -362 -335
-470 -470 -198 -248 -370 -550 -481 -846 -43 -115 -1440 -4688 -1459 -4774
-20 -97 -23 -285 -7 -395 85 -551 521 -973 1072 -1036 56 -6 383 -9 874 -7
l784 3 -64 70 c-495 540 -787 1269 -839 2094 l-11 174 66 419 c37 231 65 421
63 422 -2 2 -172 33 -378 70 -206 37 -386 71 -399 75 -24 7 520 110 989 186
1136 187 2209 507 3195 955 99 45 308 146 464 226 157 79 286 142 289 140 7
-8 -99 -311 -160 -455 -129 -305 -323 -641 -478 -831 -63 -77 -65 -74 46 -67
509 29 1015 373 1411 958 l68 101 12 -29 c7 -15 26 -70 43 -120 l31 -92 -80
-93 c-44 -51 -92 -114 -105 -139 -33 -60 -56 -150 -56 -220 0 -31 25 -364 55
-740 69 -856 70 -971 9 -1336 -93 -564 -300 -1060 -620 -1486 -51 -67 -127
-159 -169 -205 l-78 -83 854 4 c929 4 884 1 1065 62 511 171 855 668 831 1200
-3 66 -11 145 -17 175 -15 71 -1482 4489 -1567 4720 -77 210 -173 412 -272
575 -205 337 -509 664 -835 898 -580 416 -1316 618 -2026 556z"/>
</g>
</svg>
