<?xml version="1.0" standalone="no"?>
<!DOCTYPE svg PUBLIC "-//W3C//DTD SVG 20010904//EN"
 "http://www.w3.org/TR/2001/REC-SVG-20010904/DTD/svg10.dtd">
<svg version="1.0" xmlns="http://www.w3.org/2000/svg"
 width="1024.000000pt" height="1024.000000pt" viewBox="0 0 1024.000000 1024.000000"
 preserveAspectRatio="xMidYMid meet">
<metadata>
Created by potrace 1.11, written by Peter Selinger 2001-2013
</metadata>
<g transform="translate(0.000000,1024.000000) scale(0.100000,-0.100000)"
fill="#000000" stroke="none">
<path d="M4740 8685 c-482 -58 -943 -254 -1325 -562 -119 -96 -324 -304 -416
-423 -146 -187 -278 -416 -362 -625 -60 -151 -59 -147 -763 -2460 -462 -1517
-627 -2072 -635 -2135 -58 -461 283 -906 751 -980 39 -6 319 -10 706 -10 l642
0 -102 153 c-316 474 -488 1008 -526 1634 l-11 168 61 379 c33 208 60 386 60
396 0 14 -58 27 -375 85 -206 38 -373 70 -371 72 5 5 625 117 901 163 1338
224 2521 609 3577 1166 98 52 180 94 182 94 9 0 -70 -233 -130 -382 -115 -289
-275 -577 -442 -800 l-84 -111 89 7 c305 25 574 138 839 352 170 137 363 353
502 562 30 45 58 82 61 82 4 0 23 -50 43 -111 l37 -112 -75 -85 c-41 -47 -88
-113 -105 -147 -58 -119 -58 -112 5 -915 57 -707 58 -728 47 -885 -28 -389
-99 -713 -228 -1040 -104 -262 -255 -535 -396 -713 -8 -11 112 -12 669 -10
664 4 681 4 759 26 372 102 631 412 670 803 17 162 38 90 -696 2299 -373 1125
-684 2054 -689 2065 -6 11 -34 94 -64 185 -146 447 -354 783 -682 1100 -417
404 -930 648 -1503 715 -152 18 -473 18 -621 0z"/>
</g>
</svg>
