<svg width="53" height="57" viewBox="0 0 53 57" fill="none" xmlns="http://www.w3.org/2000/svg">
<path fill-rule="evenodd" clip-rule="evenodd" d="M49.5441 7.23116C51.3082 7.06885 52.6067 5.50719 52.4444 3.74309C52.2821 1.979 50.7204 0.680493 48.9563 0.842803L14.1999 4.04065C12.4358 4.20296 11.1373 5.76462 11.2996 7.52872C11.4619 9.29282 13.0236 10.5913 14.7877 10.429L49.5441 7.23116ZM8.92731 55.7727C10.0213 57.1661 12.0377 57.4089 13.4311 56.3149C14.8245 55.221 15.0673 53.2045 13.9733 51.8111L6.58042 42.3945C5.48646 41.0011 3.47003 40.7584 2.07662 41.8523C0.683197 42.9463 0.440441 44.9627 1.53441 46.3562L8.92731 55.7727ZM41.492 43.6275C43.0987 44.3737 45.0061 43.6761 45.7523 42.0694C46.4986 40.4626 45.801 38.5552 44.1942 37.809L13.3083 23.4649C11.7016 22.7187 9.79414 23.4163 9.04794 25.023C8.30174 26.6297 8.99933 28.5371 10.6061 29.2833L41.492 43.6275Z" fill="#8559FF"/>
</svg>
