<svg width="53" height="91" viewBox="0 0 53 91" fill="none" xmlns="http://www.w3.org/2000/svg">
<path fill-rule="evenodd" clip-rule="evenodd" d="M19.9757 0.945C18.7263 -0.310969 16.6954 -0.316319 15.4394 0.933049C14.1834 2.18242 14.1781 4.21339 15.4274 5.46936L47.4808 37.692C48.7302 38.948 50.7611 38.9534 52.0171 37.704C53.2731 36.4546 53.2784 34.4237 52.0291 33.1677L19.9757 0.945ZM48.3773 72.9059C50.0227 72.2495 50.8245 70.3835 50.1682 68.738C49.5118 67.0925 47.6457 66.2907 46.0003 66.9471L2.56299 84.2747C0.917536 84.9311 0.115738 86.7971 0.772128 88.4426C1.42852 90.088 3.29453 90.8898 4.93999 90.2334L48.3773 72.9059ZM4.325 43.0411C2.58203 42.7242 0.912169 43.8802 0.595265 45.6232C0.278361 47.3662 1.43442 49.036 3.17739 49.3529L31.4049 54.4852C33.1479 54.8021 34.8177 53.646 35.1346 51.9031C35.4515 50.1601 34.2955 48.4902 32.5525 48.1733L4.325 43.0411Z" fill="#8559FF"/>
</svg>
